<?xml version="1.0" standalone="no"?>
<!DOCTYPE svg PUBLIC "-//W3C//DTD SVG 20010904//EN"
 "http://www.w3.org/TR/2001/REC-SVG-20010904/DTD/svg10.dtd">
<svg version="1.0" xmlns="http://www.w3.org/2000/svg"
 width="240.000000pt" height="240.000000pt" viewBox="0 0 240.000000 240.000000"
 preserveAspectRatio="xMidYMid meet">
<metadata>
Created by potrace 1.16, written by Peter Selinger 2001-2019
</metadata>
<g transform="translate(0.000000,240.000000) scale(0.100000,-0.100000)"
fill="#000000" stroke="none">
<path d="M1050 2124 c-207 -40 -380 -134 -520 -280 -175 -184 -260 -393 -260
-644 0 -251 85 -460 260 -644 120 -126 253 -206 427 -258 68 -20 100 -23 243
-23 180 0 247 13 385 75 260 117 472 381 529 662 21 99 21 277 0 376 -57 281
-269 545 -529 662 -127 57 -198 72 -360 75 -82 2 -161 1 -175 -1z m338 -131
c303 -74 528 -300 608 -610 23 -92 23 -274 0 -366 -81 -312 -301 -532 -613
-613 -92 -23 -274 -23 -366 0 -312 81 -532 301 -613 613 -23 92 -23 274 0 366
77 299 287 517 579 604 118 35 280 37 405 6z"/>
<path d="M832 1522 c-61 -57 -48 -153 25 -187 105 -50 204 57 150 163 -28 57
-125 70 -175 24z"/>
<path d="M1432 1537 c-41 -23 -56 -58 -53 -124 2 -35 51 -83 92 -89 115 -19
182 119 97 198 -33 31 -94 38 -136 15z"/>
<path d="M696 994 c-28 -27 -19 -68 29 -132 109 -149 285 -236 475 -236 190 0
366 87 475 236 48 64 57 105 29 132 -30 31 -61 20 -102 -36 -53 -71 -120 -131
-181 -162 -223 -113 -466 -50 -623 162 -41 56 -72 67 -102 36z"/>
</g>
</svg>
